<svg width="20" height="22" viewBox="0 0 20 22" fill="none" xmlns="http://www.w3.org/2000/svg">
<path d="M0 7.64893C0 6.54436 0.895431 5.64893 2 5.64893H9.47368V10.2103H2C0.895429 10.2103 0 9.3149 0 8.21033V7.64893Z" fill="white"/>
<path d="M20 8.21045C20 9.31502 19.1046 10.2104 18 10.2104L10.5263 10.2104L10.5263 5.64905L18 5.64905C19.1046 5.64905 20 6.54448 20 7.64905L20 8.21045Z" fill="white"/>
<path d="M19.6491 19.0874C19.6491 20.192 18.7537 21.0874 17.6491 21.0874L10.5263 21.0874L10.5263 11.6137L19.6491 11.6137L19.6491 19.0874Z" fill="white"/>
<path d="M9.47369 21.0874L2.35088 21.0874C1.24631 21.0874 0.350879 20.192 0.350879 19.0874L0.350879 11.6137L9.47369 11.6137L9.47369 21.0874Z" fill="white"/>
<path d="M14.2105 0.385742C15.2763 0.385742 16.1404 1.24975 16.1404 2.31557C16.1404 3.38138 15.2763 4.24539 14.2105 4.24539L10.5263 4.24539L10.5263 3.19276C10.5263 1.64249 11.7831 0.385742 13.3333 0.385742L14.2105 0.385742Z" fill="white"/>
<path d="M5.78948 0.385742C4.72366 0.385742 3.85965 1.24975 3.85965 2.31557C3.85965 3.38138 4.72366 4.24539 5.78947 4.24539L9.47368 4.24539L9.47368 3.19276C9.47368 1.64249 8.21694 0.385742 6.66667 0.385742L5.78948 0.385742Z" fill="white"/>
</svg>
