<svg width="27" height="28" viewBox="0 0 27 28" fill="none" xmlns="http://www.w3.org/2000/svg">
<path d="M0 9.10522C0 8.00065 0.89543 7.10522 2 7.10522H12.7895V13.2631H2C0.895433 13.2631 0 12.3677 0 11.2631V9.10522Z" fill="#B6B6B6"/>
<path d="M27 11.2632C27 12.3678 26.1046 13.2632 25 13.2632L14.2105 13.2632L14.2105 7.10529L25 7.10529C26.1046 7.10529 27 8.00072 27 9.10529L27 11.2632Z" fill="#B6B6B6"/>
<path d="M26.5263 25.9473C26.5263 27.0518 25.6309 27.9473 24.5263 27.9473L14.2105 27.9473L14.2105 15.1578L26.5263 15.1578L26.5263 25.9473Z" fill="#B6B6B6"/>
<path d="M12.7895 27.9473L2.47368 27.9473C1.36911 27.9473 0.473684 27.0518 0.473684 25.9473L0.473685 15.1578L12.7895 15.1578L12.7895 27.9473Z" fill="#B6B6B6"/>
<path d="M19.1842 -1.1388e-07C20.6231 -5.09856e-08 21.7895 1.16642 21.7895 2.60526C21.7895 4.04411 20.6231 5.21053 19.1842 5.21053L14.2105 5.21053L14.2105 3.78948C14.2105 1.69661 15.9071 -2.57125e-07 18 -1.65643e-07L19.1842 -1.1388e-07Z" fill="#B6B6B6"/>
<path d="M7.81579 -1.1388e-07C6.37694 -5.09856e-08 5.21053 1.16642 5.21053 2.60526C5.21053 4.04411 6.37694 5.21053 7.81579 5.21053L12.7895 5.21053L12.7895 3.78948C12.7895 1.69661 11.0929 -2.57125e-07 9 -1.65643e-07L7.81579 -1.1388e-07Z" fill="#B6B6B6"/>
</svg>
