<svg width="20" height="21" viewBox="0 0 20 21" fill="none" xmlns="http://www.w3.org/2000/svg">
<path d="M0 7.26318C0 6.15861 0.895431 5.26318 2 5.26318H9.47368V9.82459H2C0.895429 9.82459 0 8.92916 0 7.82459V7.26318Z" fill="#EE7100"/>
<path d="M20 7.82471C20 8.92928 19.1046 9.82471 18 9.82471L10.5263 9.82471L10.5263 5.2633L18 5.2633C19.1046 5.2633 20 6.15874 20 7.2633L20 7.82471Z" fill="#EE7100"/>
<path d="M19.6491 18.7017C19.6491 19.8062 18.7537 20.7017 17.6491 20.7017L10.5263 20.7017L10.5263 11.228L19.6491 11.228L19.6491 18.7017Z" fill="#EE7100"/>
<path d="M9.47368 20.7017L2.35087 20.7017C1.2463 20.7017 0.350871 19.8062 0.350871 18.7017L0.350872 11.228L9.47368 11.228L9.47368 20.7017Z" fill="#EE7100"/>
<path d="M14.2105 -8.43554e-08C15.2763 -3.77672e-08 16.1404 0.864012 16.1404 1.92982C16.1404 2.99564 15.2763 3.85965 14.2105 3.85965L10.5263 3.85965L10.5263 2.80702C10.5263 1.25674 11.7831 -1.90463e-07 13.3333 -1.22699e-07L14.2105 -8.43554e-08Z" fill="#EE7100"/>
<path d="M5.78948 -8.43554e-08C4.72366 -3.77672e-08 3.85965 0.864012 3.85965 1.92982C3.85965 2.99564 4.72366 3.85965 5.78947 3.85965L9.47368 3.85965L9.47368 2.80702C9.47368 1.25674 8.21694 -1.90463e-07 6.66667 -1.22699e-07L5.78948 -8.43554e-08Z" fill="#EE7100"/>
</svg>
