<svg width="31" height="28" viewBox="0 0 31 28" fill="none" xmlns="http://www.w3.org/2000/svg">
<path d="M13.7254 2.65885L14.7902 3.71538L13.7254 2.65885L2.6264 13.8444C1.06091 15.4221 2.17843 18.1053 4.40102 18.1053H4.90217V24C4.90217 25.3807 6.02146 26.5 7.40217 26.5H10.6848C12.0655 26.5 13.1848 25.3807 13.1848 24V18.3822C13.2582 17.1643 14.1584 16.3684 15.5 16.3684C16.2831 16.3684 16.8601 16.5688 17.2138 16.8545C17.5211 17.1027 17.8028 17.526 17.8152 18.3524V24C17.8152 25.3807 18.9345 26.5 20.3152 26.5H23.5978C24.9785 26.5 26.0978 25.3807 26.0978 24V18.1053H26.599C28.8216 18.1053 29.9391 15.4221 28.3736 13.8444L17.2746 2.65885C16.2968 1.67337 14.7032 1.67337 13.7254 2.65885Z" stroke="#D96C07" stroke-width="3"/>
</svg>
