<svg width="33" height="33" viewBox="0 0 33 33" fill="none" xmlns="http://www.w3.org/2000/svg">
<g filter="url(#filter0_d_578_214)">
<path fill-rule="evenodd" clip-rule="evenodd" d="M11.7364 0.349252C10.9182 0.837486 9.95633 1.97071 9.44064 3.05409C9.09406 3.78208 8.9935 4.31182 8.99218 5.41651C8.98933 7.5451 9.46204 8.42355 10.9788 9.10837C11.9733 9.55751 12.8518 9.5464 13.8531 9.07206C15.4023 8.3385 15.8511 7.20139 15.6224 4.58994C15.3061 0.978305 13.6715 -0.805463 11.7364 0.349252ZM18.9444 0.611064C18.0501 1.48859 17.4867 3.10819 17.3706 5.13432C17.2507 7.22807 17.6135 8.14877 18.8803 8.96403C19.5911 9.42132 19.833 9.4771 20.8515 9.41836C22.8807 9.30107 23.9345 8.16322 24.099 5.91141C24.2041 4.4758 23.8958 3.40558 22.9714 1.99628C21.6872 0.0381531 20.0884 -0.511781 18.9444 0.611064ZM5.5287 7.97701C4.91131 8.45208 4.31436 9.66053 4.06722 10.9359C3.84602 12.0769 4.19164 13.8316 4.79805 14.6466C5.80577 16.0011 7.69318 16.3698 9.03895 15.4751C10.3567 14.599 10.6279 13.3681 9.93626 11.4015C8.85601 8.32979 6.97219 6.86602 5.5287 7.97701ZM24.9774 8.38538C24.1202 9.12171 23.5635 9.97552 23.0343 11.3648C22.2548 13.4119 22.6429 14.9311 24.1435 15.7074C25.1043 16.2045 26.0139 16.244 26.911 15.8275C27.7992 15.4152 28.2411 14.8091 28.6897 13.3878C29.0208 12.3391 29.1003 11.9407 28.8632 11.0587C28.3913 9.30342 26.6389 6.95811 24.9774 8.38538ZM15.3265 9.80376C15.0097 9.99276 14.5056 10.4302 14.2061 10.7758C13.6393 11.4302 12.3992 14.3316 12.3992 14.3316C12.3992 14.3316 11.5599 15.5944 10.0124 16.3342C9.03062 16.8034 8.23028 17.3279 7.95737 17.6813C6.63433 19.3928 6.96935 22.8086 8.59125 24.1439C9.95766 25.2686 12.1023 25.2705 14.5453 24.1488C15.3669 23.7715 16.2324 23.4786 16.4687 23.4978C16.7051 23.5169 17.5207 23.8419 18.2815 24.2201C19.4646 24.808 19.8856 24.9177 21.1925 24.9781C22.5074 25.0391 22.8394 24.9889 23.5714 24.619C25.0751 23.859 25.7433 22.3887 25.6253 20.1004C25.5274 18.2064 25.0732 17.6111 22.8025 16.4009C20.8899 15.3817 20.8829 15.3733 20.0625 13.196C18.9338 10.2008 16.9922 8.81006 15.3265 9.80376Z" fill="#D96C07"/>
</g>
<defs>
<filter id="filter0_d_578_214" x="0" y="0" width="33" height="33" filterUnits="userSpaceOnUse" color-interpolation-filters="sRGB">
<feFlood flood-opacity="0" result="BackgroundImageFix"/>
<feColorMatrix in="SourceAlpha" type="matrix" values="0 0 0 0 0 0 0 0 0 0 0 0 0 0 0 0 0 0 127 0" result="hardAlpha"/>
<feOffset dy="4"/>
<feGaussianBlur stdDeviation="2"/>
<feComposite in2="hardAlpha" operator="out"/>
<feColorMatrix type="matrix" values="0 0 0 0 0.956863 0 0 0 0 0.956863 0 0 0 0 0.956863 0 0 0 1 0"/>
<feBlend mode="normal" in2="BackgroundImageFix" result="effect1_dropShadow_578_214"/>
<feBlend mode="normal" in="SourceGraphic" in2="effect1_dropShadow_578_214" result="shape"/>
</filter>
</defs>
</svg>
