<svg width="32" height="29" viewBox="0 0 32 29" fill="none" xmlns="http://www.w3.org/2000/svg">
<mask id="path-1-inside-1_545_235" fill="white">
<path fill-rule="evenodd" clip-rule="evenodd" d="M28.768 2.57358C25.3366 -0.857861 19.7731 -0.85786 16.3416 2.57358L15.6311 3.28412L14.9999 2.65293C11.5685 -0.778506 6.00502 -0.778507 2.57358 2.65293C-0.857862 6.08437 -0.857858 11.6478 2.57358 15.0793L15.6321 28.1378L28.0584 15.7114L28.0575 15.7105L28.768 14.9999C32.1994 11.5685 32.1994 6.00502 28.768 2.57358Z"/>
</mask>
<path d="M16.3416 2.57358L14.2203 0.452261V0.452261L16.3416 2.57358ZM28.768 2.57358L30.8893 0.45226L28.768 2.57358ZM15.6311 3.28412L13.5098 5.40544L15.6311 7.52676L17.7524 5.40544L15.6311 3.28412ZM14.9999 2.65293L12.8786 4.77425L12.8786 4.77426L14.9999 2.65293ZM2.57358 2.65293L0.452258 0.531613L0.452258 0.531613L2.57358 2.65293ZM2.57358 15.0793L4.6949 12.958L2.57358 15.0793ZM15.6321 28.1378L13.5107 30.2591L15.6321 32.3804L17.7534 30.2591L15.6321 28.1378ZM28.0584 15.7114L30.1797 17.8327L32.3 15.7125L30.1808 13.5912L28.0584 15.7114ZM28.0575 15.7105L25.9361 13.5891L23.8159 15.7094L25.9351 17.8307L28.0575 15.7105ZM28.768 14.9999L26.6467 12.8786L26.6467 12.8786L28.768 14.9999ZM18.463 4.6949C20.7228 2.43503 24.3868 2.43503 26.6467 4.6949L30.8893 0.45226C26.2863 -4.15075 18.8233 -4.15075 14.2203 0.452261L18.463 4.6949ZM17.7524 5.40544L18.463 4.6949L14.2203 0.452261L13.5098 1.1628L17.7524 5.40544ZM12.8786 4.77426L13.5098 5.40544L17.7524 1.1628L17.1212 0.531614L12.8786 4.77426ZM4.6949 4.77425C6.95477 2.51439 10.6187 2.51439 12.8786 4.77425L17.1212 0.531614C12.5182 -4.0714 5.05527 -4.0714 0.452258 0.531613L4.6949 4.77425ZM4.6949 12.958C2.43503 10.6981 2.43503 7.03412 4.6949 4.77425L0.452258 0.531613C-4.15076 5.13463 -4.15075 12.5976 0.452262 17.2006L4.6949 12.958ZM17.7534 26.0164L4.6949 12.958L0.452262 17.2006L13.5107 30.2591L17.7534 26.0164ZM25.9371 13.5901L13.5107 26.0164L17.7534 30.2591L30.1797 17.8327L25.9371 13.5901ZM25.9351 17.8307L25.936 17.8317L30.1808 13.5912L30.1798 13.5902L25.9351 17.8307ZM26.6467 12.8786L25.9361 13.5891L30.1788 17.8318L30.8893 17.1212L26.6467 12.8786ZM26.6467 4.6949C28.9065 6.95477 28.9065 10.6187 26.6467 12.8786L30.8893 17.1212C35.4923 12.5182 35.4923 5.05527 30.8893 0.45226L26.6467 4.6949Z" fill="#D96C07" mask="url(#path-1-inside-1_545_235)"/>
</svg>
