<svg width="25" height="23" viewBox="0 0 25 23" fill="none" xmlns="http://www.w3.org/2000/svg">
<mask id="path-1-inside-1_150_137" fill="white">
<path fill-rule="evenodd" clip-rule="evenodd" d="M22.9471 2.05285C20.21 -0.684282 15.7723 -0.684284 13.0351 2.05285L12.4683 2.61971L11.9649 2.11632C9.22775 -0.620815 4.78998 -0.620816 2.05285 2.11631C-0.684281 4.85345 -0.684285 9.29121 2.05285 12.0283L12.4691 22.4446L22.3811 12.5326L22.3803 12.5317L22.9471 11.9649C25.6843 9.22775 25.6843 4.78998 22.9471 2.05285Z"/>
</mask>
<path d="M13.0351 2.05285L14.4493 3.46706V3.46706L13.0351 2.05285ZM22.9471 2.05285L24.3614 0.638635L22.9471 2.05285ZM12.4683 2.61971L11.0541 4.03392L12.4683 5.44813L13.8825 4.03392L12.4683 2.61971ZM11.9649 2.11632L13.3791 0.702102L13.3791 0.702102L11.9649 2.11632ZM2.05285 2.11631L3.46706 3.53053V3.53053L2.05285 2.11631ZM2.05285 12.0283L3.46706 10.6141L3.46706 10.6141L2.05285 12.0283ZM12.4691 22.4446L11.0549 23.8588L12.4691 25.273L13.8833 23.8588L12.4691 22.4446ZM22.3811 12.5326L23.7953 13.9468L25.2087 12.5334L23.7961 11.1192L22.3811 12.5326ZM22.3803 12.5317L20.9661 11.1175L19.5527 12.5309L20.9653 13.9451L22.3803 12.5317ZM22.9471 11.9649L21.5329 10.5507L21.5329 10.5507L22.9471 11.9649ZM14.4493 3.46706C16.4054 1.51098 19.5769 1.51098 21.5329 3.46706L24.3614 0.638635C20.8432 -2.87954 15.1391 -2.87955 11.6209 0.638633L14.4493 3.46706ZM13.8825 4.03392L14.4493 3.46706L11.6209 0.638633L11.0541 1.20549L13.8825 4.03392ZM10.5507 3.53053L11.0541 4.03392L13.8825 1.20549L13.3791 0.702102L10.5507 3.53053ZM3.46706 3.53053C5.42315 1.57445 8.59458 1.57445 10.5507 3.53053L13.3791 0.702102C9.86091 -2.81608 4.15682 -2.81608 0.638636 0.702101L3.46706 3.53053ZM3.46706 10.6141C1.51098 8.65804 1.51098 5.48661 3.46706 3.53053L0.638636 0.702101C-2.87954 4.22028 -2.87955 9.92437 0.638633 13.4426L3.46706 10.6141ZM13.8833 21.0304L3.46706 10.6141L0.638633 13.4425L11.0549 23.8588L13.8833 21.0304ZM20.9669 11.1184L11.0549 21.0304L13.8833 23.8588L23.7953 13.9468L20.9669 11.1184ZM20.9653 13.9451L20.9661 13.946L23.7961 11.1192L23.7953 11.1183L20.9653 13.9451ZM21.5329 10.5507L20.9661 11.1175L23.7945 13.9459L24.3614 13.3791L21.5329 10.5507ZM21.5329 3.46706C23.489 5.42314 23.489 8.59458 21.5329 10.5507L24.3614 13.3791C27.8795 9.86091 27.8795 4.15682 24.3614 0.638635L21.5329 3.46706Z" fill="#B6B6B6" mask="url(#path-1-inside-1_150_137)"/>
</svg>
