<svg width="10" height="16" viewBox="0 0 10 16" fill="none" xmlns="http://www.w3.org/2000/svg">
<path fill-rule="evenodd" clip-rule="evenodd" d="M10 5C10 5.98228 9.71675 6.8984 9.22746 7.67114L4.95536 15.3125L0.757448 7.64716C0.277435 6.87948 0 5.97214 0 5C0 2.23858 2.23858 0 5 0C7.76142 0 10 2.23858 10 5ZM5 7.64193C6.41086 7.64193 7.55458 6.4982 7.55458 5.08734C7.55458 3.67648 6.41086 2.53276 5 2.53276C3.58914 2.53276 2.44541 3.67648 2.44541 5.08734C2.44541 6.4982 3.58914 7.64193 5 7.64193Z" fill="black"/>
<path fill-rule="evenodd" clip-rule="evenodd" d="M10 5C10 5.98228 9.71675 6.8984 9.22746 7.67114L4.95536 15.3125L0.757448 7.64716C0.277435 6.87948 0 5.97214 0 5C0 2.23858 2.23858 0 5 0C7.76142 0 10 2.23858 10 5ZM5 7.64193C6.41086 7.64193 7.55458 6.4982 7.55458 5.08734C7.55458 3.67648 6.41086 2.53276 5 2.53276C3.58914 2.53276 2.44541 3.67648 2.44541 5.08734C2.44541 6.4982 3.58914 7.64193 5 7.64193Z" fill="#B6B6B6"/>
</svg>
